<?xml version="1.0" standalone="no"?>
<!DOCTYPE svg PUBLIC "-//W3C//DTD SVG 20010904//EN"
 "http://www.w3.org/TR/2001/REC-SVG-20010904/DTD/svg10.dtd">
<svg version="1.0" xmlns="http://www.w3.org/2000/svg"
 width="1024.000000pt" height="1024.000000pt" viewBox="0 0 1024.000000 1024.000000"
 preserveAspectRatio="xMidYMid meet">
<metadata>
Created by potrace 1.11, written by Peter Selinger 2001-2013
</metadata>
<g transform="translate(0.000000,1024.000000) scale(0.100000,-0.100000)"
fill="#000000" stroke="none">
<path d="M228 10221 c-91 -36 -155 -96 -202 -188 l-26 -52 0 -4906 0 -4906 21
-40 c11 -23 39 -61 61 -85 l41 -44 4997 0 4997 0 42 46 c24 25 51 64 62 87 18
41 19 147 19 4940 l0 4897 -29 65 c-37 81 -103 146 -179 177 l-57 23 -4850 2
c-4695 2 -4852 2 -4897 -16z m5172 -1682 c479 -42 933 -228 1291 -527 455
-381 770 -976 888 -1677 65 -383 71 -869 15 -1255 -106 -736 -419 -1356 -887
-1756 -353 -302 -785 -484 -1277 -540 -168 -19 -501 -18 -670 2 -651 75 -1198
376 -1583 869 -290 373 -492 877 -571 1425 -56 386 -50 872 15 1255 136 804
520 1448 1089 1827 130 86 370 206 510 254 357 122 741 162 1180 123z m-831
-6058 c237 -36 418 -81 1096 -268 924 -254 1183 -303 1618 -303 288 0 575 39
797 109 52 17 96 29 98 27 2 -2 12 -27 22 -55 l20 -50 -113 -95 c-300 -254
-594 -444 -805 -520 -141 -50 -261 -69 -442 -69 -417 1 -654 72 -1755 520
-599 244 -786 316 -1023 393 -165 55 -528 160 -549 160 -4 0 46 36 112 80 110
73 126 80 190 89 124 17 581 6 734 -18z"/>
<path d="M4810 8126 c-414 -60 -735 -270 -972 -636 -268 -413 -418 -1061 -418
-1810 0 -1140 374 -1986 1032 -2335 379 -200 915 -221 1286 -49 186 86 407
270 540 452 223 303 386 751 457 1253 81 579 50 1215 -86 1726 -112 421 -323
795 -578 1023 -219 197 -461 317 -731 365 -129 22 -408 28 -530 11z"/>
</g>
</svg>
